<svg width="19" height="19" viewBox="0 0 19 19" fill="none" xmlns="http://www.w3.org/2000/svg">
<path d="M17.7461 18.8153L15.1115 16.1807H2.44229V13.9577C2.44229 13.4679 2.57531 13.0144 2.84133 12.5971C3.10735 12.1798 3.4628 11.859 3.90767 11.6346C4.72178 11.232 5.54197 10.9173 6.36826 10.6904C7.19454 10.4635 8.02692 10.3141 8.86538 10.2423C8.91667 10.2423 8.96956 10.2423 9.02405 10.2423C9.07854 10.2423 9.13143 10.2455 9.18271 10.2519L0 1.0692L1.0692 0L18.8153 17.7461L17.7461 18.8153ZM3.94226 14.6807H13.6115L10.6596 11.7288C10.5301 11.716 10.4106 11.7048 10.3009 11.6952C10.1913 11.6855 10.0718 11.6807 9.94226 11.6807C9.02816 11.6807 8.12399 11.79 7.22976 12.0086C6.33553 12.2272 5.45765 12.5487 4.59612 12.973C4.39483 13.082 4.23553 13.2227 4.11822 13.3952C4.00091 13.5676 3.94226 13.7551 3.94226 13.9577V14.6807ZM16.1884 11.7404C16.4858 11.884 16.7217 12.1019 16.8961 12.3942C17.0704 12.6865 17.1627 13.0019 17.173 13.3403L15.1115 11.2789C15.2961 11.3507 15.4782 11.4225 15.6577 11.4942C15.8371 11.566 16.014 11.6481 16.1884 11.7404ZM11.8826 7.98265L10.7827 6.88268C11.1339 6.71986 11.415 6.47402 11.6259 6.14518C11.8368 5.81633 11.9423 5.4564 11.9423 5.06537C11.9423 4.51537 11.7464 4.04454 11.3548 3.65287C10.9631 3.26121 10.4923 3.06537 9.94226 3.06537C9.55123 3.06537 9.1913 3.17082 8.86245 3.38172C8.53361 3.59261 8.28778 3.8737 8.12495 4.22498L7.02498 3.12501C7.35703 2.62886 7.77786 2.24489 8.28747 1.9731C8.79708 1.70131 9.34867 1.56541 9.94226 1.56541C10.9076 1.56541 11.7323 1.90739 12.4163 2.59136C13.1002 3.27533 13.4422 4.1 13.4422 5.06537C13.4422 5.65896 13.3063 6.21055 13.0345 6.72016C12.7627 7.22977 12.3788 7.6506 11.8826 7.98265ZM13.6115 14.6807H3.94226C3.94226 14.6807 4.00091 14.6807 4.11822 14.6807C4.23553 14.6807 4.39483 14.6807 4.59612 14.6807C5.02688 14.6807 5.47111 14.6807 5.9288 14.6807C6.38649 14.6807 6.89963 14.6807 7.46821 14.6807C8.0368 14.6807 8.68038 14.6807 9.39895 14.6807C10.1175 14.6807 10.9448 14.6807 11.8806 14.6807C11.9896 14.6807 12.0938 14.6807 12.1932 14.6807C12.2925 14.6807 12.3967 14.6807 12.5057 14.6807H13.6115Z" fill="#DC2626"/>
</svg>
