<svg width="18" height="18" viewBox="0 0 18 18" fill="none" xmlns="http://www.w3.org/2000/svg">
<path d="M15.9942 17.0442L9.79804 10.8672L10.8519 9.81343L17.048 16.0096L15.9942 17.0442ZM2.47881 16.0749C1.63908 15.1582 1.01601 14.1422 0.609607 13.0269C0.203202 11.9115 0 10.7743 0 9.61535C0 8.37304 0.230448 7.16568 0.691344 5.99325C1.15224 4.82081 1.85704 3.76345 2.80576 2.82114C3.75447 1.87243 4.81761 1.16506 5.99517 0.699036C7.17273 0.233012 8.37625 0 9.60573 0C10.7711 0 11.9073 0.205766 13.0144 0.617299C14.1214 1.02883 15.1365 1.65446 16.0595 2.4942L2.47881 16.0749ZM2.64035 13.775L4.22113 12.1942C3.95447 11.8314 3.69549 11.4538 3.44421 11.0615C3.19293 10.6692 2.96729 10.264 2.76729 9.84609C2.56729 9.42813 2.4003 8.99576 2.26633 8.54896C2.13235 8.10216 2.03268 7.64927 1.96729 7.19028C1.57241 8.28901 1.4381 9.41178 1.56438 10.5586C1.69066 11.7054 2.04932 12.7775 2.64035 13.775ZM5.32495 11.1404L11.125 5.29034C10.4083 4.74034 9.68266 4.30092 8.94805 3.97207C8.21343 3.64322 7.52144 3.42111 6.87208 3.30573C6.22272 3.19034 5.63586 3.18073 5.1115 3.27688C4.58714 3.37304 4.18009 3.56599 3.89035 3.85573C3.6006 4.15573 3.40765 4.56791 3.3115 5.09227C3.21534 5.61663 3.22336 6.20606 3.33553 6.86054C3.44771 7.51503 3.66823 8.20862 3.99707 8.94132C4.32592 9.67401 4.76854 10.407 5.32495 11.1404ZM12.198 4.23652L13.8096 2.65573C12.7852 2.04547 11.698 1.67944 10.548 1.55765C9.39799 1.43586 8.27363 1.57112 7.1749 1.96345C7.65055 2.02242 8.11177 2.12209 8.55857 2.26248C9.00537 2.40286 9.43775 2.57049 9.8557 2.76536C10.2737 2.96023 10.6778 3.18331 11.0682 3.43459C11.4586 3.68588 11.8352 3.95318 12.198 4.23652Z" fill="#2563EB"/>
</svg>
